PathFileType	4	(X/Y/Z)	C:\Users\ebm\Documents\Erivelton\Erivelton2\wc8.trc
DataRate	CameraRate	NumFrames	NumMarkers	Units	OrigDataRate	OrigDataStartFrame	OrigNumFrames
150.00	150.00	      9	28	mm	150.00	430	      1146
Frame#	Time	IJ			PX			C7			T8			RAC			RAS			RPS			RAI			RPI			RLE			RME			RRS			RUS			R3M			R5M			LAC			LAS			LPS			LAI			LPI			LLE			LME			LRS			LUS			L3M			L5M			RW			LW			V_mid_elbow_r			V_mid_elbow_l			V_mid_wrist_r			V_mid_wrist_l			V_mid_trunk_low			V_mid_trunk_upp			
		X1	Y1	Z1	X2	Y2	Z2	X3	Y3	Z3	X4	Y4	Z4	X5	Y5	Z5	X6	Y6	Z6	X7	Y7	Z7	X8	Y8	Z8	X9	Y9	Z9	X10	Y10	Z10	X11	Y11	Z11	X12	Y12	Z12	X13	Y13	Z13	X14	Y14	Z14	X15	Y15	Z15	X16	Y16	Z16	X17	Y17	Z17	X18	Y18	Z18	X19	Y19	Z19	X20	Y20	Z20	X21	Y21	Z21	X22	Y22	Z22	X23	Y23	Z23	X24	Y24	Z24	X25	Y25	Z25	X26	Y26	Z26	X27	Y27	Z27	X28	Y28	Z28	

430	2.860				-617.81146	864.99530	-108.02966	-739.57898	1140.06409	-142.29175	-825.36176	993.22607	-128.02750	-687.66479	1082.17639	71.44189	-645.93091	903.16638	145.85036	-694.09027	900.42743	155.35063	-626.97296	832.96405	175.21367	-679.02832	827.29553	187.64171	-643.63214	764.54071	202.11838	-674.12653	730.32495	133.67424	-408.81177	775.08795	58.77670	-408.20538	736.67487	108.03602	-326.36630	740.94409	64.81419	-340.11108	711.77997	88.88873	-692.54688	1060.83118	-321.00082	-680.92029	893.34814	-387.26669	-724.73755	876.90857	-375.93018	-655.32458	819.37268	-407.37134	-704.54871	800.05756	-393.90039	-635.03436	729.26434	-418.41614	-670.65186	699.34357	-354.05026	-401.86609	745.49493	-284.75488	-391.94623	702.11316	-333.80237	-315.48499	708.02850	-301.45383	-337.12851	682.62329	-326.22668	-706.69580	296.96536	200.04611	-711.71716	296.92676	-429.29245	
431	2.867				-608.11115	865.19385	-107.97249	-730.43011	1140.23669	-141.84856	-816.20251	993.31390	-127.75086	-678.11780	1081.94836	71.75640	-636.64270	902.17035	145.00334	-684.74506	899.51343	154.65627	-617.67889	831.71118	173.63048	-669.71326	826.02570	186.16710	-634.28577	763.10388	200.01891	-665.37531	729.49805	131.41664	-400.63385	773.03571	54.54513	-399.80487	734.73584	104.09702	-318.49899	738.33063	59.94628	-330.54578	708.28400	82.83057	-683.40039	1061.15833	-320.74570	-672.00879	893.32758	-386.40948	-715.76917	876.99823	-375.33914	-646.28168	819.13232	-405.85052	-695.97998	799.89697	-393.02225	-626.44629	728.79236	-416.54208	-662.08954	698.85608	-352.21451	-394.47046	744.61462	-280.30704	-384.15344	701.44043	-329.48065	-307.90833	707.24402	-296.41302	-330.14764	682.38080	-321.85266	-697.33618	296.84985	200.01929	-702.30829	296.80634	-429.28537	
432	2.873				-598.86041	865.24683	-107.60161	-721.31635	1140.36047	-141.46997	-807.03271	993.36932	-127.45139	-668.81390	1081.78943	72.11600	-627.31262	901.16852	144.10725	-675.09991	898.52673	153.90094	-608.26898	830.42096	172.05798	-660.20508	824.76495	184.80675	-624.68201	761.67505	197.82423	-656.45447	728.71783	129.22795	-392.31790	770.76538	50.30864	-391.09625	732.48999	99.70075	-310.13928	735.75330	54.62529	-322.28973	705.80463	77.84433	-674.25891	1061.49866	-320.51978	-662.84808	893.20148	-385.58679	-706.81812	877.12982	-374.79642	-637.23792	818.85498	-404.31183	-686.83093	799.71918	-391.61990	-617.30548	727.96014	-414.17758	-653.98083	698.95398	-350.28748	-387.08536	743.42706	-275.63153	-376.38278	700.93597	-325.45325	-300.52081	706.04944	-291.22302	-322.74432	682.39050	-317.70160	-688.24884	296.83496	199.96123	-693.11707	296.85886	-429.22192	
433	2.880				-589.66345	865.36438	-107.47112	-712.10345	1140.44580	-141.03766	-797.86218	993.42676	-127.23361	-659.33752	1081.55933	72.45275	-617.64282	900.12543	143.12512	-665.54370	897.63953	153.21893	-598.75165	829.19019	170.41945	-650.73676	823.64368	183.43437	-615.26471	760.32617	195.81911	-647.66858	728.09198	127.15572	-383.88596	768.66772	46.16820	-382.41809	730.23328	95.64278	-302.02170	733.07141	49.85426	-314.08435	703.05310	73.25571	-665.05273	1061.80774	-320.22076	-653.72986	893.09027	-384.72028	-697.77734	877.71698	-373.77835	-628.22534	818.48621	-403.00085	-678.24475	799.60217	-390.94775	-608.48010	727.51508	-412.29672	-645.76245	699.01636	-348.48340	-379.71259	741.71191	-270.79611	-368.53973	700.65350	-321.59515	-293.21213	705.00494	-286.32751	-315.02487	682.36536	-313.95142	-679.18982	296.83804	199.99850	-683.85553	296.87698	-429.33426	
434	2.887	-578.85748	1031.73926	-129.20244	-580.43378	865.43506	-107.25977	-702.92950	1140.53149	-140.61607	-788.70679	993.51031	-126.94917	-649.94611	1081.33264	72.81878	-608.07129	899.10883	142.27872	-655.72217	896.67822	152.55379	-589.08698	827.91125	168.74692	-641.02148	822.50128	182.09865	-605.73022	758.95227	193.80537	-638.64709	727.29968	125.06139	-375.34192	766.51801	42.02626	-373.74716	727.94501	91.59452	-293.80472	730.42523	45.14441	-305.66895	700.62079	68.48982	-655.82678	1062.09021	-319.92935	-644.44934	892.98236	-383.93546	-688.64435	877.88385	-373.24542	-619.00836	818.31256	-401.57089	-668.82532	799.60193	-389.32507	-599.56268	727.12531	-410.43143	-637.38959	699.12573	-346.77661	-372.35516	739.66162	-265.67926	-360.61377	700.52142	-318.03244	-285.66232	704.00562	-281.76559	-307.11536	682.70062	-311.01691	-670.08893	296.71573	199.93936	-674.60211	296.90729	-429.35239	
435	2.893	-569.45514	1031.47705	-129.47699	-571.36023	865.47156	-106.99480	-693.77484	1140.60754	-140.17648	-779.53052	993.57080	-126.60250	-640.52509	1081.15796	73.14467	-598.08246	898.04559	141.21820	-645.93933	895.84198	151.84424	-579.36633	826.75696	167.13527	-631.60583	821.46826	180.80905	-596.05859	757.66046	191.72801	-629.52905	726.58112	123.01943	-366.89929	764.31195	38.14165	-364.97546	725.78076	87.52898	-285.24582	727.80408	40.12746	-297.34430	697.92108	63.99286	-646.71442	1062.36450	-319.55908	-635.19604	892.92188	-383.16626	-679.60040	877.95081	-372.95920	-610.09528	818.03259	-400.50388	-660.12280	799.52612	-388.72433	-590.95129	727.09479	-408.92938	-628.95721	699.27026	-345.21127	-365.04852	737.22321	-260.79807	-352.53271	700.48163	-314.50372	-277.75369	703.28131	-277.55264	-298.63135	683.66486	-308.83521	-661.04065	296.65448	199.90276	-665.35565	296.84659	-429.39807	
436	2.900	-560.14246	1031.82251	-128.80466	-562.08313	865.39630	-107.01716	-684.58026	1140.67371	-139.74879	-770.38574	993.60962	-126.33466	-630.93048	1080.88647	73.46623	-588.55133	897.07953	140.39153	-635.91492	894.99554	151.21069	-569.54395	825.59088	165.46466	-621.74304	820.36108	179.48660	-586.19403	756.33490	189.70258	-620.51581	725.99597	121.10924	-358.19943	762.21790	34.10515	-356.22406	723.57159	83.58119	-276.97522	725.16528	35.86752	-288.93402	695.49182	59.39289	-637.62738	1062.73108	-319.33499	-625.92865	892.87787	-382.39313	-670.29797	878.10693	-372.21017	-600.74658	817.87897	-399.12024	-650.77673	799.55475	-387.39154	-581.86273	726.82690	-407.10461	-620.35480	699.40155	-343.65787	-357.53250	734.37219	-255.96513	-344.13434	700.62665	-311.89066	-269.64117	703.23126	-274.16028	-289.98096	685.27917	-306.90390	-652.10406	296.61832	199.87871	-656.31342	297.00714	-429.55807	
437	2.907	-550.99829	1031.56433	-129.00948	-552.91699	865.48962	-106.92752	-675.37885	1140.72717	-139.33348	-761.24701	993.65039	-126.01252	-621.25085	1080.60352	73.77817	-578.41290	896.11078	139.36665	-625.90411	894.15076	150.57556	-559.65948	824.43842	163.93120	-611.74280	819.25378	178.28090	-576.38422	755.11255	187.76886	-611.24091	725.27289	119.13331	-349.60773	760.26129	30.13595	-347.31763	721.38043	79.63757	-268.53635	722.65466	31.26336	-280.62280	692.91095	55.13650	-628.61639	1063.03357	-319.05856	-616.50616	892.75665	-381.66483	-661.10620	878.15704	-371.87823	-591.43762	817.73486	-397.84198	-641.99188	799.50439	-386.87054	-572.69153	726.63330	-405.43845	-611.69403	699.56940	-342.21390	-349.87711	731.68689	-251.47662	-335.15759	701.07001	-309.06448	-261.25500	703.45984	-271.48645	-281.15723	686.86047	-305.07568	-643.19043	296.53571	200.06213	-646.98572	296.84030	-429.49582	
438	2.913	-541.71619	1031.50977	-128.88942	-543.70026	865.47491	-106.88039	-666.21906	1140.77563	-138.91249	-752.07648	993.66882	-125.62406	-611.75104	1080.35522	74.12309	-568.39270	896.26849	137.91983	-615.83771	893.34259	150.02617	-549.59607	823.37939	162.21977	-601.09149	817.95117	177.06934	-566.39624	753.86249	185.81102	-602.01587	724.57233	117.34667	-340.90283	758.09686	26.39012	-338.34689	719.36029	75.77072	-259.93762	720.24927	26.79890	-271.88730	690.53064	50.63133	-619.56342	1063.30920	-318.76093	-607.33521	892.77423	-381.01404	-652.02771	878.22931	-371.57251	-582.01306	817.62775	-396.60141	-632.53156	799.52539	-385.69461	-563.42163	726.45264	-403.80725	-602.92163	699.79645	-340.83984	-342.34744	729.45435	-248.04854	-326.59866	702.26038	-306.88565	-252.61644	703.60669	-269.54349	-272.51068	688.07782	-303.76743	-634.07257	296.44904	199.84114	-637.84857	296.92120	-429.56165	
